<svg width="75" height="75" viewBox="0 0 75 75" fill="none" xmlns="http://www.w3.org/2000/svg">
<g clip-path="url(#clip0_7122_4745)">
<rect width="75" height="75" rx="10" fill="black"/>
<path d="M53.4784 24.7167L51.8704 25.0822L51.5791 25.1503C51.1415 25.2502 50.6947 25.0117 50.5813 24.6215C50.5721 24.5839 50.551 24.5181 50.526 24.4288C50.3441 23.7965 49.83 22.0055 49.6257 21.2898C49.461 20.7258 49.6376 20.2439 50.0356 19.7938C50.1424 19.6716 50.2241 19.4601 50.1846 19.3191C49.3542 16.3717 48.4764 13.5313 48.4236 13.3985C47.6908 13.8921 46.9395 14.3175 46.3015 14.8487C45.657 15.3857 44.9703 15.73 44.2071 15.9357C36.1379 16.1367 28.4206 17.9335 21.2569 21.2875L21.2081 21.3122H21.2055C19.1901 21.0489 17.1801 20.7751 15.1674 20.5048C15.1252 20.4989 15.0857 20.4754 15 20.4449C16.1981 19.6258 17.3593 18.8349 18.5206 18.0428C22.3667 15.4292 26.2194 12.8191 30.0603 10.1973C30.2949 10.0374 30.5888 9.97281 30.8788 10.0104C36.9419 10.8377 43.0077 11.6592 49.0735 12.4642C49.5058 12.5206 49.6969 12.6534 49.8063 13.0471C50.6512 16.072 50.6485 15.8769 51.5066 18.9007C51.5831 19.1663 51.6859 19.332 52.0391 19.4107C52.5505 19.5247 52.9275 19.9172 53.0672 20.3709C53.4165 21.5155 53.7394 22.6648 54.0703 23.8306C54.1797 24.2208 53.9187 24.6191 53.4798 24.7202L53.4784 24.7167Z" fill="white"/>
<path d="M46.0871 22.1492C46.2057 22.5616 45.7997 22.9401 45.3331 22.8543C43.6487 22.544 41.8613 22.3912 39.9805 22.3912C33.6959 22.3912 28.4987 24.1352 24.5024 27.5809C24.1452 27.8888 23.5494 27.743 23.4255 27.3129C23.0261 25.9262 22.6307 24.5524 22.2353 23.1716C22.1601 22.9119 22.2972 22.6369 22.5648 22.5146C29.3779 19.3992 36.6075 17.7493 44.2536 17.5612C44.5555 17.5542 44.8231 17.7363 44.8969 17.9972C45.2936 19.3828 45.689 20.7589 46.0884 22.1492H46.0871Z" fill="white"/>
<path d="M49.3221 51.1196H57.0104C57.7221 51.1196 58.2573 51.7107 58.0938 52.3277C57.0815 56.133 55.0899 59.2061 52.1164 61.5435C48.8357 64.1266 44.7484 65.4181 39.8504 65.4181C34.0153 65.4181 29.2571 63.6988 25.5717 60.2649C21.889 56.8275 20.0464 51.9587 20.0464 45.6527C20.0464 39.3466 21.8337 34.2416 25.4136 30.5609C28.9895 26.8767 33.8453 25.0364 39.9783 25.0364C45.1741 25.0364 49.4315 26.3267 52.7543 28.9074C55.7477 31.2343 57.564 34.1159 58.2072 37.5486C58.3205 38.1526 57.7986 38.705 57.1119 38.705H49.3181C48.8291 38.705 48.4034 38.4159 48.2571 37.9999C47.6982 36.4039 46.7492 35.1477 45.4074 34.2346C43.8718 33.191 42.0845 32.668 40.0402 32.668C33.3958 32.668 30.0756 36.827 30.0756 45.1415C30.0756 53.4559 33.2469 57.7312 39.5921 57.7312C44.059 57.7312 46.9456 55.764 48.2571 51.833C48.3968 51.4134 48.8278 51.122 49.3194 51.122L49.3221 51.1196Z" fill="black"/>
<path d="M39.5955 57.7288C33.2503 57.7288 30.079 53.5322 30.079 45.139C30.079 36.7458 33.3992 32.6656 40.0436 32.6656C42.0866 32.6656 43.8753 33.1885 45.4108 34.2321C46.7513 35.1452 47.7016 36.4003 48.2605 37.9974C48.4068 38.4146 48.8312 38.7025 49.3215 38.7025H57.1153C57.802 38.7025 58.324 38.1514 58.2106 37.5461C57.5687 34.1122 55.7511 31.2319 52.7577 28.905C49.4349 26.3243 45.1775 25.0339 39.9817 25.0339C33.8487 25.0339 28.9929 26.8743 25.417 30.5585C21.8384 34.2403 20.0498 39.2713 20.0498 45.6502C20.0498 52.0291 21.8925 56.8251 25.5752 60.2625C29.2605 63.6975 34.0187 65.4157 39.8538 65.4157C44.7518 65.4157 48.8391 64.1253 52.1198 61.5411C55.092 59.2025 57.0836 56.1305 58.0972 52.3253C58.262 51.7083 57.7255 51.1172 57.0138 51.1172H49.3255C48.8338 51.1172 48.4028 51.4074 48.2631 51.8282C46.953 55.7592 44.0651 57.7264 39.5981 57.7264L39.5955 57.7288Z" fill="url(#paint0_linear_7122_4745)"/>
</g>
<defs>
<linearGradient id="paint0_linear_7122_4745" x1="16.249" y1="24.9721" x2="49.7236" y2="75.1839" gradientUnits="userSpaceOnUse">
<stop stop-color="#FFCA73"/>
<stop offset="0.57" stop-color="#FFBB4D"/>
<stop offset="1" stop-color="#E18E0E" stop-opacity="0.84"/>
<stop offset="1" stop-color="#FFAB2C" stop-opacity="0.84"/>
</linearGradient>
<clipPath id="clip0_7122_4745">
<rect width="75" height="75" rx="10" fill="white"/>
</clipPath>
</defs>
</svg>
